<svg width="1333" height="1184" viewBox="0 0 1333 1184" fill="none" xmlns="http://www.w3.org/2000/svg">
<line opacity="0.05" x1="433.5" x2="433.5" y2="1184" stroke="#F3E7E7"/>
<line opacity="0.05" x1="135.5" x2="135.5" y2="1184" stroke="#F3E7E7"/>
<line opacity="0.05" x1="1028.5" y1="-2.18557e-08" x2="1028.5" y2="1184" stroke="#F3E7E7"/>
<line opacity="0.05" x1="730.5" y1="-2.18557e-08" x2="730.5" y2="1184" stroke="#F3E7E7"/>
<line opacity="0.05" x1="1326.5" x2="1326.5" y2="1184" stroke="#F3E7E7"/>
<line opacity="0.05" x1="6.5" x2="6.5" y2="1184" stroke="#F3E7E7"/>
<g opacity="0.10">
<path d="M429.037 802.894H432.67V799.261H434.182V802.894H437.815V804.406H434.182V808.039H432.67V804.406H429.037V802.894Z" fill="#F3E7E7"/>
<path d="M726.037 802.894H729.67V799.261H731.182V802.894H734.815V804.406H731.182V808.039H729.67V804.406H726.037V802.894Z" fill="#F3E7E7"/>
<path d="M1024.04 802.894H1027.67V799.261H1029.18V802.894H1032.82V804.406H1029.18V808.039H1027.67V804.406H1024.04V802.894Z" fill="#F3E7E7"/>
<path d="M1322.04 802.894H1325.67V799.261H1327.18V802.894H1330.82V804.406H1327.18V808.039H1325.67V804.406H1322.04V802.894Z" fill="#F3E7E7"/>
<path d="M131.037 802.894H134.67V799.261H136.182V802.894H139.815V804.406H136.182V808.039H134.67V804.406H131.037V802.894Z" fill="#F3E7E7"/>
<path d="M2.037 802.894H5.67V799.261H7.182V802.894H10.815V804.406H7.182V808.039H5.67V804.406H2.037V802.894Z" fill="#F3E7E7"/>
<path d="M429.037 654.894H432.67V651.261H434.182V654.894H437.815V656.406H434.182V660.039H432.67V656.406H429.037V654.894Z" fill="#F3E7E7"/>
<path d="M726.037 654.894H729.67V651.261H731.182V654.894H734.815V656.406H731.182V660.039H729.67V656.406H726.037V654.894Z" fill="#F3E7E7"/>
<path d="M1024.04 654.894H1027.67V651.261H1029.18V654.894H1032.82V656.406H1029.18V660.039H1027.67V656.406H1024.04V654.894Z" fill="#F3E7E7"/>
<path d="M1322.04 654.894H1325.67V651.261H1327.18V654.894H1330.82V656.406H1327.18V660.039H1325.67V656.406H1322.04V654.894Z" fill="#F3E7E7"/>
<path d="M131.037 654.894H134.67V651.261H136.182V654.894H139.815V656.406H136.182V660.039H134.67V656.406H131.037V654.894Z" fill="#F3E7E7"/>
<path d="M2.037 654.894H5.67V651.261H7.182V654.894H10.815V656.406H7.182V660.039H5.67V656.406H2.037V654.894Z" fill="#F3E7E7"/>
<path d="M429.037 381.894H432.67V378.261H434.182V381.894H437.815V383.406H434.182V387.039H432.67V383.406H429.037V381.894Z" fill="#F3E7E7"/>
<path d="M726.037 381.894H729.67V378.261H731.182V381.894H734.815V383.406H731.182V387.039H729.67V383.406H726.037V381.894Z" fill="#F3E7E7"/>
<path d="M1024.04 381.894H1027.67V378.261H1029.18V381.894H1032.82V383.406H1029.18V387.039H1027.67V383.406H1024.04V381.894Z" fill="#F3E7E7"/>
<path d="M1322.04 381.894H1325.67V378.261H1327.18V381.894H1330.82V383.406H1327.18V387.039H1325.67V383.406H1322.04V381.894Z" fill="#F3E7E7"/>
<path d="M131.037 381.894H134.67V378.261H136.182V381.894H139.815V383.406H136.182V387.039H134.67V383.406H131.037V381.894Z" fill="#F3E7E7"/>
<path d="M2.037 381.894H5.67V378.261H7.182V381.894H10.815V383.406H7.182V387.039H5.67V383.406H2.037V381.894Z" fill="#F3E7E7"/>
<path d="M429.037 62.894H432.67V59.261H434.182V62.894H437.815V64.406H434.182V68.039H432.67V64.406H429.037V62.894Z" fill="#F3E7E7"/>
<path d="M726.037 62.894H729.67V59.261H731.182V62.894H734.815V64.406H731.182V68.039H729.67V64.406H726.037V62.894Z" fill="#F3E7E7"/>
<path d="M1024.04 62.894H1027.67V59.261H1029.18V62.894H1032.82V64.406H1029.18V68.039H1027.67V64.406H1024.04V62.894Z" fill="#F3E7E7"/>
<path d="M1322.04 62.894H1325.67V59.261H1327.18V62.894H1330.82V64.406H1327.18V68.039H1325.67V64.406H1322.04V62.894Z" fill="#F3E7E7"/>
<path d="M131.037 62.894H134.67V59.261H136.182V62.894H139.815V64.406H136.182V68.039H134.67V64.406H131.037V62.894Z" fill="#F3E7E7"/>
<path d="M2.037 62.894H5.67V59.261H7.182V62.894H10.815V64.406H7.182V68.039H5.67V64.406H2.037V62.894Z" fill="#F3E7E7"/>
</g>
</svg>
