<svg width="171" height="45" viewBox="0 0 171 45" fill="none" xmlns="http://www.w3.org/2000/svg">
<g opacity="0.2">
<mask id="mask0" mask-type="alpha" maskUnits="userSpaceOnUse" x="0" y="0" width="171" height="44">
<rect x="0.719727" y="0.53418" width="169.691" height="43" fill="black"/>
</mask>
<g mask="url(#mask0)">
<rect width="9.52651" height="150.108" transform="matrix(0.75787 -0.652405 0.657319 0.753612 -61.2539 0.358643)" fill="#EBE5E5"/>
<rect width="6.48954" height="102.255" transform="matrix(0.75787 -0.652405 0.657319 0.753612 68.5078 0.750732)" fill="#EBE5E5"/>
<rect width="6.48954" height="102.255" transform="matrix(0.75787 -0.652406 0.657319 0.753612 -7.6416 11.356)" fill="#EBE5E5"/>
<rect width="6.48954" height="102.255" transform="matrix(0.75787 -0.652405 0.657319 0.753612 -19.9375 14.2878)" fill="#C4C4C4"/>
<rect width="6.48954" height="102.255" transform="matrix(0.75787 -0.652405 0.657319 0.753612 76.623 -6.23486)" fill="#EBE5E5"/>
<rect width="6.48954" height="102.255" transform="matrix(0.75787 -0.652405 0.657319 0.753612 0.473633 4.37012)" fill="#EBE5E5"/>
<rect width="6.48954" height="102.255" transform="matrix(0.75787 -0.652405 0.657319 0.753612 84.7383 -13.2207)" fill="#EBE5E5"/>
<rect width="6.48954" height="102.255" transform="matrix(0.75787 -0.652405 0.657319 0.753612 8.58887 -2.61572)" fill="#EBE5E5"/>
<rect width="6.48954" height="102.255" transform="matrix(0.75787 -0.652405 0.657319 0.753612 92.8535 -20.2065)" fill="#EBE5E5"/>
<rect width="6.48954" height="102.255" transform="matrix(0.75787 -0.652405 0.657319 0.753612 16.7041 -9.60132)" fill="#EBE5E5"/>
<rect width="6.48954" height="102.255" transform="matrix(0.75787 -0.652405 0.657319 0.753612 100.969 -27.1924)" fill="#EBE5E5"/>
<rect width="6.48954" height="102.255" transform="matrix(0.75787 -0.652405 0.657319 0.753612 24.8193 -16.5872)" fill="#EBE5E5"/>
<rect width="6.48954" height="102.255" transform="matrix(0.75787 -0.652405 0.657319 0.753612 109.083 -34.178)" fill="#EBE5E5"/>
<rect width="6.48954" height="102.255" transform="matrix(0.75787 -0.652405 0.657319 0.753612 32.9336 -23.573)" fill="#EBE5E5"/>
<rect width="6.48954" height="102.255" transform="matrix(0.75787 -0.652405 0.657319 0.753612 117.198 -41.1638)" fill="#EBE5E5"/>
</g>
</g>
</svg>
