<svg width="375" height="70" viewBox="0 0 375 70" fill="none" xmlns="http://www.w3.org/2000/svg">
<line opacity="0.1" x1="4.37114e-08" y1="8.5" x2="375" y2="8.50003" stroke="#F3E7E7"/>
<line opacity="0.1" x1="4.37114e-08" y1="61.5" x2="375" y2="61.5" stroke="#F3E7E7"/>
<path opacity="0.15" d="M349.037 7.894H352.67V4.261H354.182V7.894H357.815V9.406H354.182V13.039H352.67V9.406H349.037V7.894Z" fill="#F3E7E7"/>
<path opacity="0.15" d="M349.037 60.894H352.67V57.261H354.182V60.894H357.815V62.406H354.182V66.039H352.67V62.406H349.037V60.894Z" fill="#F3E7E7"/>
<path opacity="0.15" d="M17.037 7.894H20.67V4.261H22.182V7.894H25.815V9.406H22.182V13.039H20.67V9.406H17.037V7.894Z" fill="#F3E7E7"/>
<path opacity="0.15" d="M17.037 60.894H20.67V57.261H22.182V60.894H25.815V62.406H22.182V66.039H20.67V62.406H17.037V60.894Z" fill="#F3E7E7"/>
</svg>
