<svg width="920" height="54" viewBox="0 0 920 54" fill="none" xmlns="http://www.w3.org/2000/svg">
<g opacity="0.04">
<line x1="1.07239e-07" y1="15.5" x2="920" y2="15.5" stroke="#F3E7E7"/>
<line x1="1.07239e-07" y1="40.5" x2="920" y2="40.5" stroke="#F3E7E7"/>
</g>
<g opacity="0.10">
<path d="M13.492 14.104H19.72V7.876H22.312V14.104H28.54V16.696H22.312V22.924H19.72V16.696H13.492V14.104Z" fill="#F3E7E7"/>
<path d="M13.492 39.104H19.72V32.876H22.312V39.104H28.54V41.696H22.312V47.924H19.72V41.696H13.492V39.104Z" fill="#F3E7E7"/>
<path d="M890.492 14.104H896.72V7.876H899.312V14.104H905.54V16.696H899.312V22.924H896.72V16.696H890.492V14.104Z" fill="#F3E7E7"/>
<path d="M890.492 39.104H896.72V32.876H899.312V39.104H905.54V41.696H899.312V47.924H896.72V41.696H890.492V39.104Z" fill="#F3E7E7"/>
</g>
</svg>
